<svg xmlns="http://www.w3.org/2000/svg" width="56.297" height="61.938" viewBox="0 0 56.297 61.938"><defs><style>.a{fill:#707070;}</style></defs><g transform="translate(-7.182 -2.043)"><path class="a" d="M33.643,7.443a2.8,2.8,0,0,0-.763-1.924C31.719,4.3,29.4,2.258,26.931,2.147c-3.261-.111-6.249,1.4-7.24,3.666a5.322,5.322,0,0,0,.45,4.788,4.233,4.233,0,0,0-4.148.554,6.535,6.535,0,0,0-1.689,7.3c.17.346.365.711.567,1.089a4.057,4.057,0,0,0-2.3.078c-1.559.594-2.733,2.883-2.753,4.781a5.968,5.968,0,0,0,.378,2.126,4.944,4.944,0,0,0-1.957,2.12,6.523,6.523,0,0,0,.13,5.362,5.414,5.414,0,0,0,2.276,2.609,3.014,3.014,0,0,0-1.363.783,7.782,7.782,0,0,0-2.042,6.262,7.575,7.575,0,0,0,2.948,5.466,2.146,2.146,0,0,0,1.833.215,4.488,4.488,0,0,0-.515,3.261c.515,2.016,2.746,3.692,6.8,5.12,1.526,5.479,5.714,6.223,7.495,6.288h.652c2.974-.111,5.7-1.67,6.366-3.731.372-1.168.6-6.568.724-13.541a.58.58,0,0,0,0-.15C33.806,32.758,33.683,12.883,33.643,7.443ZM31.5,59.847c-.378,1.168-2.055,2.361-4.207,2.687.333-2.061.548-6.034.183-7.305-.437-1.539-2.909-3.666-3.19-3.914a.7.7,0,1,0-.913,1.07c.933.789,2.5,2.368,2.753,3.261a27.165,27.165,0,0,1-.274,7.012h0c-4.468-.157-5.87-3.972-6.288-5.61a.691.691,0,0,0-.45-.489c-3.757-1.3-5.87-2.72-6.262-4.279-.457-1.8,1.376-3.8,3-5.57.509-.554.991-1.083,1.4-1.6a.694.694,0,1,0-1.057-.9c-.176.222-.365.444-.554.652h0c-1.755,1.957-3.875,3.581-4.638,3.072a6.249,6.249,0,0,1-2.329-4.455,6.373,6.373,0,0,1,1.65-5.166c.62-.652,1.892-.652,3.809-.62h.841a.7.7,0,0,0,.4-1.265,2.126,2.126,0,0,0-.985-.241c-1.3-.15-3.7-.437-4.716-2.753a5.14,5.14,0,0,1-.124-4.24,3.594,3.594,0,0,1,1.3-1.487,8.48,8.48,0,0,0,2.863,2.609.652.652,0,0,0,.913-.222.691.691,0,0,0-.241-.946c-2.081-1.22-3.209-2.909-3.19-4.762a4.356,4.356,0,0,1,2.042-3.581,2.809,2.809,0,0,1,2.687.574c1.9,3.183,4.455,6.64,6.242,7.436h0a.652.652,0,0,0-.346.326,30.027,30.027,0,0,0-1.957,4.84.685.685,0,0,0,.567.8h.117a.7.7,0,0,0,.685-.581,28.478,28.478,0,0,1,1.82-4.468.652.652,0,0,0,0-.62,6.823,6.823,0,0,0,4.227-.267.693.693,0,0,0-.581-1.259,5.3,5.3,0,0,1-3.985,0c-1.787-.8-5.218-5.773-7.175-9.738a5.225,5.225,0,0,1,1.3-5.59c1.748-1.363,4.038,0,5.655,1.389a.692.692,0,1,0,.939-1.018c-2.361-2.374-3.216-4.566-2.472-6.255s3.261-2.922,5.923-2.831c2.048.065,4.168,2.074,4.983,2.942a1.448,1.448,0,0,1,.391.978c0,4.37.052,9.517.052,14.846a7.305,7.305,0,0,0-2.426-1.579,11.4,11.4,0,0,0-3.881-.861.7.7,0,1,0,0,1.389c1.389,0,5.447.822,6.177,3.47a.7.7,0,0,0,.124.228c0,3.672,0,7.384-.039,10.952-1.122.32-4.266-.522-4.938-.9a.691.691,0,0,0-.939.274.652.652,0,0,0,.267.939,14.4,14.4,0,0,0,4.912,1.135,5.656,5.656,0,0,0,.652-.046c0,3.1-.052,6.066-.1,8.78-1.35.248-4.788.463-6.425-.391h-.059c-1.637-.652-3.424-3.914-3.966-5.525a.691.691,0,1,0-1.3.444c.528,1.592,2.453,5.388,4.722,6.347a9.908,9.908,0,0,0,4.272.744,18.988,18.988,0,0,0,2.772-.2C32.019,54.062,31.81,58.856,31.5,59.847Z" transform="translate(0 -0.034)"/><path class="a" d="M76.869,37.309a3,3,0,0,0-.881-.581,4.2,4.2,0,0,0,1.755-1.807c.7-1.389,1.455-5.694-1.735-8.049a6.118,6.118,0,0,0-4.344-8.551c1.174-1.957.528-5.316-1.363-7a4.475,4.475,0,0,0-4.494-.828,4.938,4.938,0,0,0,.359-4.116c-.959-2.609-4.227-4.442-7.606-4.331-2.609.078-5,2.179-6.21,3.424a2.609,2.609,0,0,0-.744,1.761c0,1.213,0,3.144,0,5.564a.653.653,0,0,0,0,.111v.261c-.065,14.174-.085,44.107.9,47.062.652,1.957,3.477,3.327,6.379,3.327a8.87,8.87,0,0,0,1.435-.117,7.827,7.827,0,0,0,5.988-4.892c1.735-.209,8.18-3.124,8.18-7.175a7.246,7.246,0,0,0-.222-1.7,6.9,6.9,0,0,0,4.331-4.99,7.612,7.612,0,0,0-1.729-7.377Zm.385,7.032A5.551,5.551,0,0,1,73.8,48.379c-1.213-2.877-3.914-5.3-6.425-5.3h-.359c-3.588,0-6.816-.261-6.973-3.659a.692.692,0,1,0-1.383.059c.222,5.009,5.512,4.99,8.356,4.983h.359c2.824,0,5.688,4.031,5.688,6.921,0,2.759-4.429,5.055-6.281,5.649a16.854,16.854,0,0,0,.463-4.422.691.691,0,0,0-.691-.652h0a.685.685,0,0,0-.652.7c.111,7.351-3.594,9.08-5.812,9.458a7.769,7.769,0,0,1-4.1-.444h-.059l3.1-3.653a.691.691,0,1,0-1.037-.913l-3.333,3.809a2.511,2.511,0,0,1-.848-1.1,53.2,53.2,0,0,1-.567-8.147.7.7,0,0,0,.4-.157,28.609,28.609,0,0,1,6.523-1.3.7.7,0,0,0,0-1.389A30.187,30.187,0,0,0,53.158,50.2c-.091-3.672-.157-8.121-.189-12.889a.731.731,0,0,0,.176-.2,11.642,11.642,0,0,1,4.677-2.753.691.691,0,0,0-.267-1.357,12.445,12.445,0,0,0-4.605,2.42c-.033-5.734-.039-11.819,0-17.494a5.91,5.91,0,0,0,.861,1.037,7.71,7.71,0,0,0,5.355,1.683c.339,0,.7,0,1.063-.033a.7.7,0,1,0-.085-1.389c-2.479.157-4.246-.267-5.4-1.3s-1.65-2.518-1.787-4.827c0-2.055,0-4.025.033-5.87a1.239,1.239,0,0,1,.359-.854C54.2,5.531,56.42,3.476,58.6,3.4c2.759-.085,5.512,1.415,6.294,3.431.652,1.742-.215,3.659-2.5,5.551l-.1.065a.691.691,0,1,0,.874,1.07l.117-.091c2.472-2,4.651-2.387,6.131-1.076s1.866,4.051,1.07,5.3a12.492,12.492,0,0,1-1.474,1.761,17.272,17.272,0,0,0-1.846,2.172,11.4,11.4,0,0,0-1.4,4.4H58.527a.691.691,0,0,0,0,1.383h7.064c-.1,1.031-.144,2.068-.144,3.014a.691.691,0,1,0,1.383,0c0-2.694.391-6.405,1.481-8.016a16.118,16.118,0,0,1,1.676-2c.254-.267.5-.535.731-.8a4.768,4.768,0,0,1,3.966,2.661,4.566,4.566,0,0,1,0,4.207A17.363,17.363,0,0,1,71.9,29.619a.7.7,0,0,0,0,.978.685.685,0,0,0,.489.2.652.652,0,0,0,.489-.2,27.8,27.8,0,0,0,2.368-2.544c2.883,2.185,1.3,6.229,1.259,6.268-.887,1.781-3.353,1.859-4.683,1.9a2.309,2.309,0,0,0-1.2.2.691.691,0,0,0,.385,1.3h.881c2,0,3.327,0,3.985.652a6.123,6.123,0,0,1,1.383,5.962Z" transform="translate(-15.438)"/></g></svg>