<svg xmlns="http://www.w3.org/2000/svg" width="22.382" height="21.748" viewBox="0 0 22.382 21.748"><defs><style>.a{fill:#3fc78e;}</style></defs><g transform="translate(-106.482 -110.77)"><g transform="translate(106.482 110.77)"><path class="a" d="M117.506,132.518a10.884,10.884,0,0,1-4.478-.981,11.147,11.147,0,0,1-4.822-4.119,10.94,10.94,0,0,1-1.251-9.091,10.573,10.573,0,0,1,5.863-6.68,10.919,10.919,0,0,1,9.48.434.86.86,0,0,1-.831,1.505,9.169,9.169,0,0,0-7.96-.359,8.857,8.857,0,0,0-4.9,5.6,9.219,9.219,0,0,0,1.048,7.661,9.445,9.445,0,0,0,9.36,4.171,9.133,9.133,0,0,0,6.53-4.987.859.859,0,1,1,1.55.741,10.832,10.832,0,0,1-7.765,5.938A9.849,9.849,0,0,1,117.506,132.518Z" transform="translate(-106.482 -110.77)"/></g><g transform="translate(110.816 113.522)"><path class="a" d="M170.115,160.448a.845.845,0,0,1-.6-.247l-4.9-4.778a.863.863,0,1,1,1.206-1.236l4.291,4.193,10.828-10.611a.863.863,0,1,1,1.206,1.236l-11.427,11.2A.849.849,0,0,1,170.115,160.448Z" transform="translate(-164.362 -147.525)"/></g></g></svg>