<svg xmlns="http://www.w3.org/2000/svg" width="29.812" height="54.587" viewBox="0 0 29.812 54.587"><defs><style>.a{fill:#707070;fill-rule:evenodd;}</style></defs><g transform="translate(-27.815 -15.178)"><path class="a" d="M34.654,17.675H29.925c-.037,0-.075,0-.112,0a1.249,1.249,0,0,1-.988-1.836,1.286,1.286,0,0,1,.2-.271,1.247,1.247,0,0,1,.9-.385H55.517l.112,0a1.23,1.23,0,0,1,.22.04,1.254,1.254,0,0,1,.817.713,1.28,1.28,0,0,1,.089.324,1.248,1.248,0,0,1-.7,1.292,1.248,1.248,0,0,1-.43.119c-.037,0-.075,0-.112,0H50.788V40.8l6.565,17.672.027.082a7.5,7.5,0,0,1,.159.837,9.1,9.1,0,0,1-7.855,10.283,9.637,9.637,0,0,1-1.027.073q-5.936.041-11.873,0a9.637,9.637,0,0,1-1.027-.073A9.1,9.1,0,0,1,27.9,59.388q.036-.256.086-.509a3.485,3.485,0,0,1,.1-.411L34.654,40.8ZM30.339,60.042a6.6,6.6,0,0,0,4.132,6.737,6.6,6.6,0,0,0,1.6.415,6.78,6.78,0,0,0,.746.053q5.9.041,11.8,0a6.765,6.765,0,0,0,.745-.053A6.6,6.6,0,0,0,55.1,60.01a6.9,6.9,0,0,0-.113-.738l0-.016-6.613-17.8-.042-.142a1.583,1.583,0,0,1-.035-.293V17.675H37.152V41.02l-.009.147a1.622,1.622,0,0,1-.069.287l-2.129,5.733q2.1-.019,4.2.026a1.3,1.3,0,0,1,.563.162,1.257,1.257,0,0,1,.629,1.166,1.234,1.234,0,0,1-.08.366,1.256,1.256,0,0,1-.219.367,1.239,1.239,0,0,1-.378.3,1.306,1.306,0,0,1-.515.137c-1.712.037-3.424.01-5.136,0l-.981,2.64q2.087-.017,4.172.027a1.306,1.306,0,0,1,.515.137,1.239,1.239,0,0,1,.378.3,1.25,1.25,0,0,1-.036,1.668,1.24,1.24,0,0,1-.295.231,1.3,1.3,0,0,1-.563.162c-1.7.037-3.406.01-5.11,0l-.981,2.641q2.122-.02,4.243.026a1.31,1.31,0,0,1,.515.137,1.259,1.259,0,0,1,.378.3,1.275,1.275,0,0,1,.219.367,1.249,1.249,0,0,1-.549,1.533,1.3,1.3,0,0,1-.563.162C33.68,60.074,32.009,60.05,30.339,60.042Z" transform="translate(0 0)"/></g></svg>