<svg xmlns="http://www.w3.org/2000/svg" width="35.175" height="54.716" viewBox="0 0 35.175 54.716"><defs><style>.a{fill:#707070;}</style></defs><g transform="translate(-7 -1.98)"><path class="a" d="M21.817,29.889a3.908,3.908,0,1,1-3.908-3.908,3.908,3.908,0,0,1,3.908,3.908Z" transform="translate(6.679 22.899)"/><path class="a" d="M24.587,1.98C15.029,1.98,7,8.852,7,17.613a1.954,1.954,0,1,0,3.908,0c0-6.348,5.969-11.724,13.679-11.724s13.679,5.377,13.679,11.724S32.3,29.338,24.587,29.338a1.954,1.954,0,0,0-1.954,1.954v11.7a1.954,1.954,0,1,0,3.908,0V33.158c8.774-.909,15.633-7.414,15.633-15.544,0-8.761-8.029-15.633-17.587-15.633Z" transform="translate(0 0)"/></g></svg>