<svg xmlns="http://www.w3.org/2000/svg" width="60.495" height="52.471" viewBox="0 0 60.495 52.471"><defs><style>.a{fill:#707070;}</style></defs><g transform="translate(-2011 -1934)"><path class="a" d="M30.815,32.368H43.48l.067,0a.9.9,0,0,0-.067-1.807H30.815l-.067,0a.9.9,0,0,0,.067,1.807Z" transform="translate(1999.183 1917.916)"/><path class="a" d="M30.815,47.323h9.047l.067,0a.9.9,0,0,0-.067-1.807H30.815l-.067,0a.9.9,0,0,0,.067,1.807Z" transform="translate(1999.183 1912.008)"/><path class="a" d="M30.815,62.278h7.237l.067,0a.9.9,0,0,0-.067-1.807H30.815l-.067,0a.9.9,0,0,0,.067,1.807Z" transform="translate(1999.183 1906.099)"/><path class="a" d="M58.64,20.272a6.333,6.333,0,1,0-8.956-8.956L48.405,12.6a.9.9,0,0,0-.265.64v2.934l-1.015-1.015a.931.931,0,0,0-1.279,0l-2.422,2.423V11.263a4.531,4.531,0,0,0-4.51-4.523L4.526,6.63h0a4.523,4.523,0,0,0,0,9.047.9.9,0,1,0,0-1.809,2.707,2.707,0,1,1,2.714-2.714V54.577A4.528,4.528,0,0,0,11.761,59.1h.861a5.433,5.433,0,0,0,.674-.042.911.911,0,0,0,.274.042H42.519a5.382,5.382,0,0,0,.9-10.688V35.488ZM12.622,57.291c-.053,0-.105-.005-.158-.008a3.586,3.586,0,0,1-3.417-3.568V11.153a4.492,4.492,0,0,0-.9-2.7l30.766.1a2.719,2.719,0,0,1,2.706,2.714v8.123l-9.841,9.841a.9.9,0,0,0-.247.817l1.184,5.922-3.5,3.5a.9.9,0,0,0,1.279,1.279l3.5-3.5,5.922,1.184a.9.9,0,0,0,.817-.247l.886-.886V48.331H12.622a.9.9,0,1,0,0,1.809,3.575,3.575,0,1,1,0,7.151Zm33.473-3.575a3.593,3.593,0,0,1-3.575,3.575H16.645a5.374,5.374,0,0,0,0-7.151H42.519A3.593,3.593,0,0,1,46.095,53.716Zm-4.48-18.977-1.823,1.823-4.265-.853,7.761-7.761a.9.9,0,1,0-1.279-1.279L34.247,34.43l-.853-4.265L46.486,17.074l1.919,1.919a.9.9,0,0,0,1.544-.64V13.61L50.964,12.6a4.523,4.523,0,1,1,6.4,6.4Z" transform="translate(2011 1927.37)"/></g></svg>