<svg xmlns="http://www.w3.org/2000/svg" width="61.187" height="51.359" viewBox="0 0 61.187 51.359"><defs><style>.a{fill:#707070;}</style></defs><g transform="translate(-2337.57 -2106.54)"><path class="a" d="M66.993,16.47H62.126V10.355a.884.884,0,0,0-1.078-.862L37.283,14.834,13.519,9.493a.884.884,0,0,0-1.078.862V16.47H7.574a.884.884,0,0,0-.884.884V55.768a.885.885,0,0,0,.884.884H31.437a1.116,1.116,0,0,1,1.055.753,5.061,5.061,0,0,0,9.581,0,1.117,1.117,0,0,1,1.057-.753H66.993a.885.885,0,0,0,.884-.884V17.354A.883.883,0,0,0,66.993,16.47Zm-28.826-.023L60.359,11.46v36.6L38.167,53.048ZM14.208,11.46,36.4,16.447v36.6L14.208,48.06Zm51.9,43.425H43.13A2.883,2.883,0,0,0,40.4,56.836a3.295,3.295,0,0,1-6.235,0,2.884,2.884,0,0,0-2.727-1.948H8.457V18.238h3.984v30.53a.881.881,0,0,0,.689.859l23.959,5.385a.73.73,0,0,0,.193.025h0a.7.7,0,0,0,.189-.025l23.96-5.385a.882.882,0,0,0,.689-.859V18.238h3.984V54.884Z" transform="translate(2330.88 2097.07)"/><path class="a" d="M13.706,17.6,24.757,20.08a.8.8,0,0,0,.168.018.765.765,0,0,0,.167-1.511L14.04,16.1a.765.765,0,1,0-.333,1.493Z" transform="translate(2338.397 2104.029)"/><path class="a" d="M13.707,20.967l11.051,2.485a.8.8,0,0,0,.168.018.765.765,0,0,0,.167-1.511L14.04,19.474a.765.765,0,1,0-.333,1.493Z" transform="translate(2338.397 2105.814)"/><path class="a" d="M13.706,24.34l11.051,2.484a.8.8,0,0,0,.168.02.766.766,0,0,0,.167-1.513L14.04,22.847a.762.762,0,0,0-.915.578A.771.771,0,0,0,13.706,24.34Z" transform="translate(2338.397 2107.599)"/><path class="a" d="M13.706,27.526,24.757,30.01a.8.8,0,0,0,.168.02.766.766,0,0,0,.167-1.513L14.04,26.032a.763.763,0,0,0-.915.58A.771.771,0,0,0,13.706,27.526Z" transform="translate(2338.397 2109.285)"/><path class="a" d="M38.314,16.1,27.259,18.588a.765.765,0,0,0,.165,1.511.8.8,0,0,0,.17-.018L38.648,17.6a.765.765,0,0,0-.335-1.493Z" transform="translate(2345.573 2104.029)"/><path class="a" d="M38.314,19.474,27.259,21.96a.765.765,0,0,0,.165,1.511.8.8,0,0,0,.17-.018l11.053-2.485a.766.766,0,0,0,.578-.915A.758.758,0,0,0,38.314,19.474Z" transform="translate(2345.573 2105.814)"/><path class="a" d="M38.314,22.847,27.259,25.331a.766.766,0,0,0,.165,1.513.8.8,0,0,0,.17-.02L38.647,24.34a.766.766,0,0,0,.578-.915A.756.756,0,0,0,38.314,22.847Z" transform="translate(2345.573 2107.599)"/><path class="a" d="M32.787,26.845l-5.526,1.243a.766.766,0,0,0,.167,1.513.8.8,0,0,0,.167-.02l5.526-1.242a.767.767,0,0,0,.578-.916A.758.758,0,0,0,32.787,26.845Z" transform="translate(2345.574 2109.715)"/></g></svg>