<svg xmlns="http://www.w3.org/2000/svg" width="56.61" height="56.61" viewBox="0 0 56.61 56.61"><defs><style>.a{fill:#707070;}</style></defs><g transform="translate(-2280.166 -2028)"><path class="a" d="M40.327,16.35A23.812,23.812,0,1,0,64.139,40.162,23.838,23.838,0,0,0,40.327,16.35Zm0,46.208a22.4,22.4,0,1,1,22.4-22.4A22.422,22.422,0,0,1,40.327,62.558Z" transform="translate(2268.144 2016.144)"/><path class="a" d="M47.907,24.123a5.467,5.467,0,1,0,5.467,5.467A5.474,5.474,0,0,0,47.907,24.123Zm0,9.519a4.052,4.052,0,1,1,4.052-4.053A4.058,4.058,0,0,1,47.907,33.642Z" transform="translate(2260.564 2013.871)"/><path class="a" d="M47.907,60.425a5.467,5.467,0,1,0,5.467,5.468A5.474,5.474,0,0,0,47.907,60.425Zm0,9.519a4.052,4.052,0,1,1,4.052-4.052A4.057,4.057,0,0,1,47.907,69.944Z" transform="translate(2260.564 2003.257)"/><path class="a" d="M60.591,47.741a5.467,5.467,0,1,0,5.467-5.468A5.474,5.474,0,0,0,60.591,47.741Zm9.519,0a4.052,4.052,0,1,1-4.052-4.053A4.058,4.058,0,0,1,70.11,47.741Z" transform="translate(2255.257 2008.564)"/><path class="a" d="M29.756,42.273a5.468,5.468,0,1,0,5.468,5.468A5.474,5.474,0,0,0,29.756,42.273Zm0,9.52a4.053,4.053,0,1,1,4.053-4.053A4.057,4.057,0,0,1,29.756,51.793Z" transform="translate(2265.871 2008.564)"/><path class="a" d="M38.471,10a28.3,28.3,0,0,0-8.822,55.195H10.874a.708.708,0,0,0,0,1.415H37.787a.7.7,0,0,0,.076-.016c.2,0,.4.016.608.016a28.305,28.305,0,0,0,0-56.61Zm0,55.195a26.89,26.89,0,1,1,26.89-26.89A26.92,26.92,0,0,1,38.471,65.195Z" transform="translate(2270 2018)"/><path class="a" d="M52.181,48.714a3.113,3.113,0,1,0-3.114,3.113A3.117,3.117,0,0,0,52.181,48.714Zm-4.812,0a1.7,1.7,0,1,1,1.7,1.7A1.7,1.7,0,0,1,47.37,48.714Z" transform="translate(2259.536 2007.591)"/></g></svg>