<svg xmlns="http://www.w3.org/2000/svg" width="55.914" height="57.673" viewBox="0 0 55.914 57.673"><defs><style>.a{fill:#707070;}</style></defs><g transform="translate(-38.638 -31.8)"><path class="a" d="M199.832,89.074A6.508,6.508,0,0,0,200,102.089l.17,0a6.517,6.517,0,0,0,6.337-6.671h0a6.459,6.459,0,0,0-2.023-4.552A6.61,6.61,0,0,0,199.832,89.074Zm.286,11.109a4.636,4.636,0,0,1-4.725-4.486,4.605,4.605,0,0,1,4.488-4.721H200a4.6,4.6,0,0,1,.116,9.208Z" transform="translate(-134.934 -49.906)"/><path class="a" d="M84.508,170.033a6.509,6.509,0,1,0-3.132-3.874A6.465,6.465,0,0,0,84.508,170.033Zm-.936-7.918a4.6,4.6,0,1,1-.372,3.505A4.608,4.608,0,0,1,83.572,162.115Z" transform="translate(-37.006 -109.797)"/><path class="a" d="M92.54,289.695a6.51,6.51,0,1,0,4.028,2.93A6.481,6.481,0,0,0,92.54,289.695ZM95.5,297.1a4.608,4.608,0,1,1-.55-3.481A4.577,4.577,0,0,1,95.5,297.1Z" transform="translate(-39.973 -224.566)"/><path class="a" d="M200.237,359.133h0a6.519,6.519,0,0,0,6.509,6.342c.053,0,.109,0,.165,0a6.508,6.508,0,1,0-6.674-6.34Zm9.677-3.5a4.607,4.607,0,0,1-3.052,7.944h-.116a4.605,4.605,0,1,1,3.168-7.944Z" transform="translate(-140.812 -279.417)"/><path class="a" d="M94.5,85.968l-1.164-4.81-2.532-9-.072-.281a91.168,91.168,0,0,0-3.647-11.12l-1.991-4.718c-.014-.04-.055-.057-.073-.094L79.929,43.834a.9.9,0,0,0-.074-.109c.437-2.518-.149-4.647-1.71-5.863-2.193-1.708-2.7-5.21-2.7-5.245,0-.017-.013-.029-.016-.046a.936.936,0,0,0-.069-.2.947.947,0,0,0-.068-.146.931.931,0,0,0-.117-.132.947.947,0,0,0-.148-.136c-.013-.008-.019-.022-.033-.03a.88.88,0,0,0-.1-.036.892.892,0,0,0-.21-.075.917.917,0,0,0-.17-.009.85.85,0,0,0-.139-.007c-.017,0-.029.013-.046.016a.939.939,0,0,0-.188.065.572.572,0,0,0-.281.183.932.932,0,0,0-.139.151c-.009.014-.024.021-.032.035A16.288,16.288,0,0,0,72,36.215c-.044.152-.047.287-.082.436a18.9,18.9,0,0,0-7.1-.89A26.842,26.842,0,0,0,46.947,82.013a26.441,26.441,0,0,0,18.408,7.46c.225,0,.448,0,.674-.009a22.333,22.333,0,0,0,11.166-3.138,8.033,8.033,0,0,0,3.738-6.382,9.247,9.247,0,0,0-2.98-7.755c-4.725-4.028-7.055-7.206-7.12-9.713-.059-2.362,1.89-5.438,5.9-9.361l1.35,5.271c0,.01.013.014.016.024l1.671,5.183c0,.008,0,.023,0,.03s.011.011.014.018l1.68,5.21L83.7,74.538l3.893,8.675,2.177,4.381a2.1,2.1,0,0,0,1.921,1.122,2.529,2.529,0,0,0,.829-.142l.488-.17A2.122,2.122,0,0,0,94.5,85.968ZM73.827,36.738c.127-.445.288-.849.442-1.261a9,9,0,0,0,2.705,3.884A3.784,3.784,0,0,1,78.086,42.9a4.737,4.737,0,0,0-1.159.162,4.55,4.55,0,0,0-1.283.567A6.806,6.806,0,0,1,73.827,36.738Zm2.325,14.275c-3.15,2.978-7.324,7.41-7.22,11.51s4.492,8.307,7.784,11.112a7.328,7.328,0,0,1,2.321,6.148,6.151,6.151,0,0,1-2.818,4.907,20.484,20.484,0,0,1-10.237,2.874A24.579,24.579,0,0,1,48.265,80.64,24.939,24.939,0,0,1,64.858,37.664a16.406,16.406,0,0,1,6.8.912A8.927,8.927,0,0,0,74.753,45.4l1.429,5.579ZM79.508,56.3,76.67,45.216a2.55,2.55,0,0,1,.748-.319,2.443,2.443,0,0,1,.851-.1l4.408,10.483A12.1,12.1,0,0,0,79.508,56.3Zm1.617,5.325-1.11-3.439a7.889,7.889,0,0,1,1.645-.7,7.785,7.785,0,0,1,1.823-.375L84.87,60.4a11.615,11.615,0,0,0-3.745,1.224ZM92.387,86.607l-.488.17a.469.469,0,0,1-.42-.023L89.316,82.4l-3.861-8.6-2.207-5.6L81.72,63.467a7.536,7.536,0,0,1,1.844-.818,7.371,7.371,0,0,1,2.043-.4,89.9,89.9,0,0,1,3.284,10.1L91.5,81.64,92.649,86.4A.4.4,0,0,1,92.387,86.607Z"/></g></svg>