<svg xmlns="http://www.w3.org/2000/svg" width="64.122" height="66.896" viewBox="0 0 64.122 66.896"><defs><style>.a{fill:#707070;}</style></defs><g transform="translate(-2061.866 -1999)"><path class="a" d="M61.49,53.9v0c-.4,0-.807.019-1.209.051A13.017,13.017,0,1,1,46.152,68.034q-.05.569-.058,1.136A15.336,15.336,0,0,0,61.489,84.448h0a15.337,15.337,0,0,0,15.4-15.276h0A15.337,15.337,0,0,0,61.49,53.9Z" transform="translate(2044.93 1981.448)"/><path class="a" d="M27.874,54.8l-8.538,3.164-2.748-7.414-4.269,1.582,2.748,7.414-8.2,3.039,1.54,4.156,8.2-3.039,7.12,19.212L28,81.335,20.876,62.124l8.539-3.165Z" transform="translate(2055 1982.306)"/><path class="a" d="M82.509,29.413h0a1.947,1.947,0,0,0-1.947,1.947h0a1.947,1.947,0,1,0,1.947-1.948Z" transform="translate(2036.081 1987.733)"/><path class="a" d="M69.839,13.615A13.779,13.779,0,0,0,56.06,27.394h0A13.778,13.778,0,1,0,69.839,13.615ZM65.405,27.306a1.947,1.947,0,1,1-1.948-1.948h0a1.948,1.948,0,0,1,1.947,1.948Zm10.783,6.707c-3.908-.087-5.393-2.15-6.29-4.817-.051-5.2-2.187-8.271-6.829-8.271A6.254,6.254,0,0,0,58,23.953a12.342,12.342,0,0,1,11.843-8.9h0A12.292,12.292,0,0,1,81.97,29.607C80.4,33.249,78.15,34.009,76.188,34.013Z" transform="translate(2042.371 1991.788)"/><path class="a" d="M9.079,32.166H19.4l5.118,8.867,5.119-8.867H40.447l-5.4-9.357,5.163-8.943H29.881L24.763,5h0l-5.119,8.867H8.839l5.4,9.357Zm3.631-2.1,2.742-4.75,1.229,2.13,1.512,2.62H12.71Zm11.813,6.769-2.7-4.673h5.4ZM36.816,30.07H30.853l1.513-2.62,1.469-2.544Zm-.239-14.105-2.742,4.749L32.6,18.584l-1.513-2.619h5.484ZM24.763,9.194l2.7,4.673H22.066Zm-3.909,6.77h7.817l2.118,3.667,1.835,3.178L30.55,26.4,28.432,30.07H20.615L18.5,26.4l-1.834-3.177,2.074-3.592Zm-8.384,0h5.963L16.92,18.584l-1.469,2.544Z" transform="translate(2054.493 1994)"/><path class="a" d="M57.919,68.267l2.48,4.067.32-4.753,4.634-1.1-4.422-1.773.385-4.747-3.053,3.657-4.4-1.833L56.4,65.815,53.3,69.43Z" transform="translate(2043.08 1979.891)"/></g></svg>