<svg xmlns="http://www.w3.org/2000/svg" width="68.633" height="62.6" viewBox="0 0 68.633 62.6"><defs><style>.a{fill:#707070;}</style></defs><g transform="translate(-244.5 -1363.5)"><path class="a" d="M65.14,64.4a5.914,5.914,0,0,1-9.375-1.653,1.808,1.808,0,0,0-3.227,1.633,9.53,9.53,0,0,0,15.075,2.659A1.808,1.808,0,0,0,65.14,64.4Zm5.272-15a6.167,6.167,0,0,0-5.34,1.6,1.809,1.809,0,0,0,2.481,2.633,2.58,2.58,0,0,1,4.092.722,1.808,1.808,0,1,0,3.228-1.629A6.15,6.15,0,0,0,70.412,49.407Zm8.317-11.53a41.966,41.966,0,0,0-12.981-4.325,48.374,48.374,0,0,0-8.971-.75c-.757-4.3-1.577-8.952-1.6-9.1-.611-3.467-5.275-5.456-12.8-5.456a48.862,48.862,0,0,0-8.438.775A41.945,41.945,0,0,0,20.96,23.349c-5.005,2.836-5.681,5.555-5.365,7.346.049.274,2.879,16.324,2.879,16.324,1.609,9.125,10.675,19.293,21.113,19.294h0a15.349,15.349,0,0,0,2.654-.231c.134-.023.264-.057.4-.084,2.534,7.793,8.2,13.449,14.811,14.614a15.658,15.658,0,0,0,2.716.237c10.129,0,19.363-9.723,21.053-19.3,0,0,2.834-16.081,2.879-16.332C84.411,43.433,83.735,40.714,78.729,37.877ZM41.614,62.521a11.792,11.792,0,0,1-2.026.176h0c-8.4,0-16.195-8.609-17.552-16.306,0,0-2.846-16.138-2.881-16.333-.084-.481.556-1.845,3.588-3.563A38.307,38.307,0,0,1,34.57,22.586a45.186,45.186,0,0,1,7.81-.72c6,0,9.059,1.473,9.233,2.46.035.2,2.881,16.342,2.881,16.342C56,49.216,50.353,60.979,41.614,62.521Zm36.043-1.6c-1.51,8.55-10.852,17.663-19.579,16.133C52.141,76,47.926,70.413,46.085,64.874c5.245-2.411,9.078-7.558,10.963-13.268a2.483,2.483,0,0,1,.138.212,1.808,1.808,0,1,0,3.224-1.636,6.243,6.243,0,0,0-2.385-2.54,22.733,22.733,0,0,0,.028-7.6L57.411,36.4a45.311,45.311,0,0,1,7.707.711,38.325,38.325,0,0,1,11.828,3.91c3.032,1.719,3.674,3.082,3.59,3.556C80.5,44.786,77.657,60.919,77.657,60.918ZM48.814,34.407a1.808,1.808,0,0,0-2.284-1.15c-1.892.625-3.417.323-4.411-.874a1.808,1.808,0,0,0-2.782,2.31,6.8,6.8,0,0,0,5.383,2.5,9.41,9.41,0,0,0,2.944-.5A1.809,1.809,0,0,0,48.814,34.407ZM34.234,35.6a1.808,1.808,0,0,0-3.4-1.224c-.527,1.466-1.858,2.272-3.85,2.332a1.808,1.808,0,0,0,.053,3.615h.055C30.589,40.213,33.193,38.492,34.234,35.6Zm4.485,10.5a9.486,9.486,0,0,0-6.871,5.123,1.807,1.807,0,1,0,3.227,1.629,5.917,5.917,0,0,1,9.374-1.65,1.808,1.808,0,1,0,2.472-2.638A9.491,9.491,0,0,0,38.719,46.1Z" transform="translate(228.971 1345.251)"/></g></svg>